<svg width="233" height="48" viewBox="0 0 233 48" fill="none" xmlns="http://www.w3.org/2000/svg">
<path d="M11.124 35.288C9.228 35.288 7.392 35 5.616 34.424C3.864 33.824 2.484 33.056 1.476 32.12L2.808 29.312C3.768 30.176 4.992 30.884 6.48 31.436C7.992 31.964 9.54 32.228 11.124 32.228C13.212 32.228 14.772 31.88 15.804 31.184C16.836 30.464 17.352 29.516 17.352 28.34C17.352 27.476 17.064 26.78 16.488 26.252C15.936 25.7 15.24 25.28 14.4 24.992C13.584 24.704 12.42 24.38 10.908 24.02C9.012 23.564 7.476 23.108 6.3 22.652C5.148 22.196 4.152 21.5 3.312 20.564C2.496 19.604 2.088 18.32 2.088 16.712C2.088 15.368 2.436 14.156 3.132 13.076C3.852 11.996 4.932 11.132 6.372 10.484C7.812 9.836 9.6 9.512 11.736 9.512C13.224 9.512 14.688 9.704 16.128 10.088C17.568 10.472 18.804 11.024 19.836 11.744L18.648 14.624C17.592 13.952 16.464 13.448 15.264 13.112C14.064 12.752 12.888 12.572 11.736 12.572C9.696 12.572 8.16 12.944 7.128 13.688C6.12 14.432 5.616 15.392 5.616 16.568C5.616 17.432 5.904 18.14 6.48 18.692C7.056 19.22 7.764 19.64 8.604 19.952C9.468 20.24 10.632 20.552 12.096 20.888C13.992 21.344 15.516 21.8 16.668 22.256C17.82 22.712 18.804 23.408 19.62 24.344C20.46 25.28 20.88 26.54 20.88 28.124C20.88 29.444 20.52 30.656 19.8 31.76C19.08 32.84 17.988 33.704 16.524 34.352C15.06 34.976 13.26 35.288 11.124 35.288ZM42.1954 35.288C39.6514 35.288 37.3594 34.736 35.3194 33.632C33.2794 32.504 31.6714 30.956 30.4954 28.988C29.3434 27.02 28.7674 24.824 28.7674 22.4C28.7674 19.976 29.3434 17.78 30.4954 15.812C31.6714 13.844 33.2794 12.308 35.3194 11.204C37.3594 10.076 39.6514 9.512 42.1954 9.512C44.7154 9.512 46.9954 10.076 49.0354 11.204C51.0754 12.308 52.6714 13.844 53.8234 15.812C54.9754 17.756 55.5514 19.952 55.5514 22.4C55.5514 24.848 54.9754 27.056 53.8234 29.024C52.6714 30.968 51.0754 32.504 49.0354 33.632C46.9954 34.736 44.7154 35.288 42.1954 35.288ZM42.1954 32.084C44.0434 32.084 45.6994 31.664 47.1634 30.824C48.6514 29.984 49.8154 28.832 50.6554 27.368C51.5194 25.88 51.9514 24.224 51.9514 22.4C51.9514 20.576 51.5194 18.932 50.6554 17.468C49.8154 15.98 48.6514 14.816 47.1634 13.976C45.6994 13.136 44.0434 12.716 42.1954 12.716C40.3474 12.716 38.6674 13.136 37.1554 13.976C35.6674 14.816 34.4914 15.98 33.6274 17.468C32.7874 18.932 32.3674 20.576 32.3674 22.4C32.3674 24.224 32.7874 25.88 33.6274 27.368C34.4914 28.832 35.6674 29.984 37.1554 30.824C38.6674 31.664 40.3474 32.084 42.1954 32.084ZM74.2919 26.288V35H70.7279V26.216L60.7199 9.8H64.5719L72.6359 23.084L80.7359 9.8H84.2999L74.2919 26.288Z" fill="white"/>
<path d="M114.272 35L114.2 21.644L107.72 32.516H104.552L98.108 22.004V35H91.52V9.8H97.388L106.244 24.344L114.884 9.8H120.752L120.824 35H114.272Z" fill="white"/>
<path d="M136.564 15.308V29.492H140.632V35H125.332V29.492H129.436V15.308H125.332V9.8H140.632V15.308H136.564ZM170.657 29.492V35H148.085V30.968L153.377 24.668H149.993V19.628H157.625L161.225 15.308H148.409V9.764H170.117V13.796L165.113 19.772H168.245V24.776H160.901L156.941 29.492H170.657Z" fill="white"/>
<path d="M186.536 28.304H182.648V35H175.52V9.8H187.04C189.32 9.8 191.3 10.184 192.98 10.952C194.66 11.696 195.956 12.776 196.868 14.192C197.78 15.584 198.236 17.228 198.236 19.124C198.236 20.948 197.804 22.544 196.94 23.912C196.1 25.256 194.888 26.312 193.304 27.08L198.74 35H191.108L186.536 28.304ZM191.036 19.124C191.036 17.948 190.664 17.036 189.92 16.388C189.176 15.74 188.072 15.416 186.608 15.416H182.648V22.796H186.608C188.072 22.796 189.176 22.484 189.92 21.86C190.664 21.212 191.036 20.3 191.036 19.124Z" fill="white"/>
<path d="M229.936 35H201.676L212.908 9.8H218.668L229.936 35ZM209.38 30.248H222.052L215.752 15.308L209.38 30.248Z" fill="white"/>
</svg>
